<svg width="34" height="34" viewBox="0 0 34 34" fill="none" xmlns="http://www.w3.org/2000/svg">
<path d="M9.5625 31.875C4.10833 31.875 0 29.5942 0 26.5625V5.3125C0 2.28083 4.10833 0 9.5625 0C15.0167 0 19.125 2.28083 19.125 5.3125V13.8125C19.125 14.0943 19.0131 14.3645 18.8138 14.5638C18.6145 14.7631 18.3443 14.875 18.0625 14.875C17.7807 14.875 17.5105 14.7631 17.3112 14.5638C17.1119 14.3645 17 14.0943 17 13.8125V12.9625C15.2292 14.1808 12.5517 14.875 9.5625 14.875C6.57333 14.875 3.89583 14.1667 2.125 12.9625V13.8125C2.125 15.3142 5.3125 17 9.5625 17C10.6328 17.0036 11.7007 16.8992 12.75 16.6883C13.0081 16.6955 13.2547 16.7964 13.4438 16.9721C13.6329 17.1479 13.7516 17.3864 13.7776 17.6433C13.8036 17.9001 13.7353 18.1577 13.5853 18.3678C13.4352 18.5779 13.2139 18.7262 12.9625 18.785C11.8575 19.0117 10.7242 19.125 9.59083 19.125C6.57333 19.125 3.89583 18.4167 2.125 17.2125V18.0625C2.125 19.5642 5.3125 21.25 9.5625 21.25C10.6331 21.2598 11.7016 21.1553 12.75 20.9383C13.021 20.9267 13.2862 21.0191 13.4912 21.1967C13.6963 21.3743 13.8256 21.6235 13.8528 21.8934C13.8799 22.1633 13.8029 22.4334 13.6373 22.6482C13.4718 22.8631 13.2304 23.0066 12.9625 23.0492C11.8575 23.2617 10.7242 23.375 9.59083 23.375C6.57333 23.375 3.89583 22.6667 2.125 21.4625V22.3125C2.125 23.8142 5.3125 25.5 9.5625 25.5C10.633 25.5081 11.7014 25.4037 12.75 25.1883C13.021 25.1767 13.2862 25.2691 13.4912 25.4467C13.6963 25.6243 13.8256 25.8735 13.8528 26.1434C13.8799 26.4133 13.8029 26.6834 13.6373 26.8982C13.4718 27.1131 13.2304 27.2566 12.9625 27.2992C11.8575 27.5117 10.7242 27.625 9.59083 27.625C6.57333 27.625 3.89583 26.9167 2.125 25.7125V26.5625C2.125 28.0642 5.3125 29.75 9.5625 29.75C10.6328 29.7546 11.7008 29.6501 12.75 29.4383C13.021 29.4267 13.2862 29.5191 13.4912 29.6967C13.6963 29.8743 13.8256 30.1235 13.8528 30.3934C13.8799 30.6633 13.8029 30.9334 13.6373 31.1482C13.4718 31.3631 13.2304 31.5066 12.9625 31.5492C11.8575 31.7617 10.7242 31.875 9.59083 31.875H9.5625ZM2.125 9.5625C2.125 11.0642 5.3125 12.75 9.5625 12.75C13.8125 12.75 17 11.0642 17 9.5625V8.7125C15.2292 9.93083 12.5517 10.625 9.5625 10.625C6.57333 10.625 3.89583 9.91667 2.125 8.7125V9.5625ZM9.5625 2.125C5.3125 2.125 2.125 3.81083 2.125 5.3125C2.125 6.81417 5.3125 8.5 9.5625 8.5C13.8125 8.5 17 6.81417 17 5.3125C17 3.81083 13.8125 2.125 9.5625 2.125Z" fill="black"/>
<path d="M24.4375 34C18.9833 34 14.875 31.7192 14.875 28.6875V20.1875C14.875 17.1558 18.9833 14.875 24.4375 14.875C29.8917 14.875 34 17.1558 34 20.1875V28.6875C34 31.7192 29.8917 34 24.4375 34ZM17 28.6875C17 30.1892 20.1875 31.875 24.4375 31.875C28.6875 31.875 31.875 30.1892 31.875 28.6875V27.8375C30.1042 29.0558 27.4267 29.75 24.4375 29.75C21.4483 29.75 18.7708 29.0417 17 27.8375V28.6875ZM17 24.4375C17 25.9392 20.1875 27.625 24.4375 27.625C28.6875 27.625 31.875 25.9392 31.875 24.4375V23.5875C30.1042 24.8058 27.4267 25.5 24.4375 25.5C21.4483 25.5 18.7708 24.7917 17 23.5875V24.4375ZM24.4375 17C20.1875 17 17 18.6858 17 20.1875C17 21.6892 20.1875 23.375 24.4375 23.375C28.6875 23.375 31.875 21.6892 31.875 20.1875C31.875 18.6858 28.6875 17 24.4375 17Z" fill="black"/>
</svg>
