<svg width="10" height="10" viewBox="0 0 10 10" fill="none" xmlns="http://www.w3.org/2000/svg">
<path d="M9.73922 0.119496C9.60451 0.0229187 9.43695 -0.0161924 9.27341 0.0107657C9.10986 0.0377237 8.96372 0.128543 8.86714 0.263246L3.01922 8.41658L1.06714 6.46283C0.949944 6.34558 0.790975 6.27969 0.6252 6.27965C0.459426 6.27961 0.300426 6.34543 0.183178 6.46262C0.0659302 6.57981 3.90875e-05 6.73878 1.73848e-08 6.90456C-3.90527e-05 7.07033 0.0657771 7.22933 0.18297 7.34658L2.65589 9.81908C2.72081 9.88155 2.79828 9.92951 2.88315 9.95975C2.96802 9.99 3.05836 10.0019 3.14816 9.99453C3.23796 9.9872 3.32518 9.96085 3.40402 9.91724C3.48287 9.87363 3.55153 9.81375 3.60547 9.74158L9.88297 0.991579C9.97955 0.856869 10.0187 0.689313 9.9917 0.525767C9.96474 0.362222 9.87392 0.216083 9.73922 0.119496Z" fill="black"/>
</svg>
