<svg width="33" height="33" viewBox="0 0 33 33" fill="none" xmlns="http://www.w3.org/2000/svg">
<g clip-path="url(#clip0_407_1923)">
<path d="M8.25 10.3125C5.4065 10.3125 3.09375 7.99975 3.09375 5.15625C3.09375 2.31275 5.4065 0 8.25 0C11.0935 0 13.4062 2.31275 13.4062 5.15625C13.4062 7.99975 11.0935 10.3125 8.25 10.3125ZM8.25 2.0625C6.54362 2.0625 5.15625 3.44987 5.15625 5.15625C5.15625 6.86263 6.54362 8.25 8.25 8.25C9.95638 8.25 11.3438 6.86263 11.3438 5.15625C11.3438 3.44987 9.95638 2.0625 8.25 2.0625ZM5.15625 33C4.90039 33.0008 4.65343 32.9062 4.4637 32.7345C4.27398 32.5628 4.15516 32.3265 4.1305 32.0719L3.19138 22.6875H1.03125C0.757746 22.6875 0.495443 22.5789 0.302046 22.3855C0.108649 22.1921 0 21.9298 0 21.6562L0 18.5625C0 14.014 3.7015 10.3125 8.25 10.3125C12.7985 10.3125 16.5 14.014 16.5 18.5625V21.6562C16.5 21.9298 16.3913 22.1921 16.198 22.3855C16.0046 22.5789 15.7423 22.6875 15.4688 22.6875H13.3086L12.3709 32.0719C12.3459 32.3267 12.2268 32.563 12.0368 32.7346C11.8469 32.9062 11.5998 33.0009 11.3438 33H5.15625ZM10.4101 30.9375L11.3479 21.5531C11.3729 21.2983 11.492 21.062 11.6819 20.8904C11.8719 20.7188 12.119 20.6241 12.375 20.625H14.4375V18.5625C14.4375 15.1511 11.6614 12.375 8.25 12.375C4.83862 12.375 2.0625 15.1511 2.0625 18.5625V20.625H4.125C4.65712 20.625 5.0985 21.0238 5.15075 21.5531L6.08987 30.9375H10.4101ZM24.75 10.3125C21.9065 10.3125 19.5938 7.99975 19.5938 5.15625C19.5938 2.31275 21.9065 0 24.75 0C27.5935 0 29.9062 2.31275 29.9062 5.15625C29.9062 7.99975 27.5935 10.3125 24.75 10.3125ZM24.75 2.0625C23.0436 2.0625 21.6562 3.44987 21.6562 5.15625C21.6562 6.86263 23.0436 8.25 24.75 8.25C26.4564 8.25 27.8438 6.86263 27.8438 5.15625C27.8438 3.44987 26.4564 2.0625 24.75 2.0625ZM21.6562 33C21.4003 33.0005 21.1533 32.9055 20.9636 32.7336C20.7739 32.5617 20.6551 32.3253 20.6305 32.0705L19.6914 22.6875H18.5625C18.289 22.6875 18.0267 22.5789 17.8333 22.3855C17.6399 22.1921 17.5312 21.9298 17.5312 21.6562C17.5312 21.3827 17.6399 21.1204 17.8333 20.927C18.0267 20.7337 18.289 20.625 18.5625 20.625H20.625C21.1571 20.625 21.5985 21.0251 21.6508 21.5545L22.5899 30.9375H26.9115L27.8506 21.5531C27.875 21.2986 27.9935 21.0623 28.183 20.8906C28.3725 20.7189 28.6193 20.6242 28.875 20.625H30.9375V18.5625C30.9389 17.7498 30.7791 16.9448 30.4674 16.1943C30.1556 15.4437 29.698 14.7625 29.1211 14.19C28.5484 13.6143 27.8671 13.158 27.1168 12.8474C26.3665 12.5368 25.562 12.3781 24.75 12.3805C23.6829 12.3836 22.6345 12.6612 21.7057 13.1866C20.7769 13.7121 19.9989 14.4677 19.4466 15.3807C19.2988 15.6 19.0724 15.7543 18.8142 15.8116C18.556 15.8689 18.2857 15.825 18.0589 15.6888C17.8322 15.5527 17.6663 15.3348 17.5955 15.08C17.5247 14.8251 17.5543 14.5528 17.6784 14.3192C18.4143 13.1027 19.4505 12.0957 20.6877 11.3951C21.9248 10.6944 23.3213 10.3235 24.7431 10.318C26.95 10.318 29.0208 11.1746 30.5786 12.7298C31.3478 13.4933 31.9578 14.4019 32.3735 15.4029C32.7891 16.4038 33.0021 17.4773 33 18.5611V21.6549C33 21.9284 32.8913 22.1907 32.698 22.3841C32.5046 22.5775 32.2423 22.6861 31.9688 22.6861H29.8086L28.8695 32.0705C28.8449 32.3253 28.7261 32.5617 28.5364 32.7336C28.3467 32.9055 28.0997 33.0005 27.8438 33H21.6562Z" fill="black"/>
</g>
<defs>
<clipPath id="clip0_407_1923">
<rect width="33" height="33" fill="white"/>
</clipPath>
</defs>
</svg>
