<svg width="46" height="27" viewBox="0 0 46 27" fill="none" xmlns="http://www.w3.org/2000/svg">
<path d="M4.92871 9.1785L10.0782 2.55776C10.4571 2.07059 11.0397 1.78564 11.6569 1.78564H34.2512C34.9199 1.78564 35.5444 2.11985 35.9153 2.67624L37.7859 5.48207L40.2501 9.1785" stroke="black" stroke-width="2"/>
<rect x="1" y="7.71436" width="44" height="17.7143" rx="8.85714" stroke="black" stroke-width="2"/>
<path d="M16.7451 13.8246L18.0463 18.086H18.0946L19.3957 13.8246H20.9696L19.0065 19.6428H17.1343L15.1713 13.8246H16.7451ZM24.516 19.6428V13.8246H26.9194C27.355 13.8246 27.731 13.9032 28.0472 14.0604C28.3654 14.2157 28.6107 14.4392 28.783 14.7309C28.9554 15.0207 29.0416 15.3644 29.0416 15.7621C29.0416 16.1655 28.9535 16.5084 28.7774 16.7905C28.6012 17.0709 28.3512 17.2849 28.0274 17.4326C27.7035 17.5784 27.32 17.6513 26.8768 17.6513H25.3569V16.5434H26.6154C26.8275 16.5434 27.0046 16.5159 27.1467 16.461C27.2906 16.4042 27.3995 16.319 27.4734 16.2053C27.5472 16.0898 27.5842 15.9421 27.5842 15.7621C27.5842 15.5822 27.5472 15.4335 27.4734 15.3161C27.3995 15.1968 27.2906 15.1078 27.1467 15.0491C27.0027 14.9885 26.8257 14.9582 26.6154 14.9582H25.9222V19.6428H24.516ZM27.7916 16.9837L29.2404 19.6428H27.7063L26.2859 16.9837H27.7916Z" fill="black"/>
</svg>
